HIERARCHY
ROOT Hips
{
	OFFSET 0.000000 0.000000 0.000000
	CHANNELS 6 Xposition Yposition Zposition Zrotation Yrotation Xrotation 
	JOINT LHipJoint
	{
		OFFSET 0.000000 0.000000 0.000000
		CHANNELS 3 Zrotation Yrotation Xrotation
		JOINT LeftUpLeg
		{
			OFFSET 8.178360 -10.767780 5.035740
			CHANNELS 3 Zrotation Yrotation Xrotation
			JOINT LeftLeg
			{
				OFFSET 14.688660 -40.356780 0.000000
				CHANNELS 3 Zrotation Yrotation Xrotation
				JOINT LeftFoot
				{
					OFFSET 15.373200 -42.237540 0.000000
					CHANNELS 3 Zrotation Yrotation Xrotation
					JOINT LeftToeBase
					{
						OFFSET 0.945840 -2.598660 13.935300
						CHANNELS 3 Zrotation Yrotation Xrotation
						End Site
						{
							OFFSET 0.000000 0.000000 0.000000
						}
					}
				}
			}
		}
	}
	JOINT RHipJoint
	{
		OFFSET 0.000000 0.000000 0.000000
		CHANNELS 3 Zrotation Yrotation Xrotation
		JOINT RightUpLeg
		{
			OFFSET -7.833120 -10.767780 5.035740
			CHANNELS 3 Zrotation Yrotation Xrotation
			JOINT RightLeg
			{
				OFFSET -15.255180 -41.913300 0.000000
				CHANNELS 3 Zrotation Yrotation Xrotation
				JOINT RightFoot
				{
					OFFSET -15.409560 -42.337380 0.000000
					CHANNELS 3 Zrotation Yrotation Xrotation
					JOINT RightToeBase
					{
						OFFSET -0.988380 -2.715540 14.178900
						CHANNELS 3 Zrotation Yrotation Xrotation
						End Site
						{
							OFFSET 0.000000 0.000000 0.000000
						}
					}
				}
			}
		}
	}
	JOINT LowerBack
	{
		OFFSET 0.000000 0.000000 0.000000
		CHANNELS 3 Zrotation Yrotation Xrotation
		JOINT Spine
		{
			OFFSET 0.169620 12.213540 -1.160280
			CHANNELS 3 Zrotation Yrotation Xrotation
			JOINT Spine1
			{
				OFFSET 0.340320 12.293100 -0.256500
				CHANNELS 3 Zrotation Yrotation Xrotation
				JOINT Neck
				{
					OFFSET 0.000000 0.000000 0.000000
					CHANNELS 3 Zrotation Yrotation Xrotation
					JOINT Neck1
					{
						OFFSET -0.325020 10.477440 1.032120
						CHANNELS 3 Zrotation Yrotation Xrotation
						JOINT Head
						{
							OFFSET 0.624420 10.568160 -0.743820
							CHANNELS 3 Zrotation Yrotation Xrotation
							End Site
							{
								OFFSET 0.000000 0.000000 0.000000
							}
						}
					}
				}
				JOINT LeftShoulder
				{
					OFFSET 0.000000 0.000000 0.000000
					CHANNELS 3 Zrotation Yrotation Xrotation
					JOINT LeftArm
					{
						OFFSET 20.174460 7.205340 -1.867260
						CHANNELS 3 Zrotation Yrotation Xrotation
						JOINT LeftForeArm
						{
							OFFSET 29.898000 -0.000000 -0.000000
							CHANNELS 3 Zrotation Yrotation Xrotation
							JOINT LeftHand
							{
								OFFSET 20.901360 -0.000000 -0.000000
								CHANNELS 3 Zrotation Yrotation Xrotation
								JOINT LeftFingerBase
								{
									OFFSET 0.000000 0.000000 0.000000
									CHANNELS 3 Zrotation Yrotation Xrotation
									JOINT LeftHandIndex1
									{
										OFFSET 4.291560 -0.000000 -0.000000
										CHANNELS 3 Zrotation Yrotation Xrotation
										End Site
										{
											OFFSET 0.000000 0.000000 0.000000
										}
									}
								}
								JOINT LThumb
								{
									OFFSET 0.000000 0.000000 0.000000
									CHANNELS 3 Zrotation Yrotation Xrotation
									End Site
									{
										OFFSET 0.000000 0.000000 0.000000
									}
								}
							}
						}
					}
				}
				JOINT RightShoulder
				{
					OFFSET 0.000000 0.000000 0.000000
					CHANNELS 3 Zrotation Yrotation Xrotation
					JOINT RightArm
					{
						OFFSET -18.819600 8.244300 -2.427900
						CHANNELS 3 Zrotation Yrotation Xrotation
						JOINT RightForeArm
						{
							OFFSET -31.451400 -0.000000 -0.000000
							CHANNELS 3 Zrotation Yrotation Xrotation
							JOINT RightHand
							{
								OFFSET -20.665020 -0.000000 -0.000000
								CHANNELS 3 Zrotation Yrotation Xrotation
								JOINT RightFingerBase
								{
									OFFSET 0.000000 0.000000 0.000000
									CHANNELS 3 Zrotation Yrotation Xrotation
									JOINT RightHandIndex1
									{
										OFFSET -3.735180 -0.000000 -0.000000
										CHANNELS 3 Zrotation Yrotation Xrotation
										End Site
										{
											OFFSET 0.000000 0.000000 0.000000
										}
									}
								}
								JOINT RThumb
								{
									OFFSET 0.000000 0.000000 0.000000
									CHANNELS 3 Zrotation Yrotation Xrotation
									End Site
									{
										OFFSET 0.000000 0.000000 0.000000
									}
								}
							}
						}
					}
				}
			}
		}
	}
}
MOTION
Frames:	6
Frame Time:	0.0333333
11.410890 104.733978 32.152494 2.460726 -49.900364 2.351892 0.088205 0.859139 0.466195 -13.207935 -14.006602 -27.250985 0.414798 8.726279 24.454378 0.351871 2.453272 13.031826 0.113200 -2.169100 -5.973200 -2.567324 -2.549830 1.365511 25.010286 5.358029 6.647770 -5.325059 -12.410223 42.414549 -2.877872 2.933654 33.683604 -0.253800 -3.241200 8.951000 -0.286649 3.936011 6.228315 0.473966 4.827837 -2.155966 1.362412 2.963003 -5.153248 -8.007511 -3.961220 -10.390032 5.204149 -4.661074 15.671687 3.492400 -2.667800 10.583200 -7.806067 3.394389 -2.367476 -84.049582 7.574696 1.849486 8.420704 -16.338262 -1.257708 -1.565803 -3.260434 14.052514 15.518541 22.338704 7.278300 -7.125000 0.000000 0.000000 -14.739400 56.220700 -4.119200 5.308070 -2.039557 -2.495563 83.229155 -1.394474 19.186575 -19.686783 28.617892 -6.852398 1.028480 -0.176159 6.750987 -15.294819 9.851210 -2.873200 7.125000 0.000000 0.000000 7.582900 -19.759000 4.613200 
8.111844 105.268464 36.902634 4.156632 -51.040678 -0.584441 0.104161 1.052573 0.802840 -16.264096 -9.866664 -24.799580 0.721536 9.155120 26.482628 0.959625 -0.813851 12.263726 0.300300 3.523500 9.739800 -3.031923 -2.426385 1.081108 23.941192 7.423833 0.226540 -9.378882 -15.761950 57.366304 -1.709948 2.203762 24.186993 -0.006200 -0.506800 1.392500 -1.591320 3.604580 7.970310 0.269162 4.291178 -1.806054 1.523512 2.648688 -5.016298 -7.856232 -3.428348 -10.685329 5.170690 -3.871965 14.377355 3.542400 -2.245800 9.944200 -7.950001 3.311316 -2.272085 -83.231711 6.193192 0.513240 8.327597 -16.144506 -1.220634 -1.604072 -3.227365 12.481458 16.298394 21.775529 7.540100 -7.125000 0.000000 0.000000 -13.468900 55.800200 -3.616300 5.567571 -2.073340 -2.401155 83.896676 -1.601634 16.314115 -17.483995 25.786353 -5.448532 1.098411 -0.163438 7.574709 -15.660630 8.592005 -2.569800 7.125000 0.000000 0.000000 7.292500 -21.070700 4.216800 
4.939968 105.894480 41.706828 5.772637 -50.616611 -2.065588 0.001356 1.269556 1.103742 -19.357424 -8.251325 -21.441850 0.711140 8.893471 26.330535 1.168221 -2.521213 9.659933 0.098400 2.022700 5.568400 -3.281899 -2.394174 0.964616 21.852971 7.388066 -8.568425 -12.637109 -17.617341 67.436752 0.104104 -4.116084 12.457328 -0.043400 -1.344800 3.698100 -2.193209 2.962876 8.151779 0.081032 3.387478 -1.704732 1.456842 2.158061 -4.667440 -8.192685 -3.281796 -10.992956 4.926082 -3.550544 14.235122 3.561400 -2.141600 9.885600 -8.227056 3.202604 -2.179396 -82.125912 3.952624 0.597814 7.663062 -14.818751 -0.939913 -1.735725 -3.193292 13.405022 16.613778 22.067256 7.804500 -7.125000 0.000000 0.000000 -13.214400 56.172200 -3.666200 5.917278 -2.070167 -2.277636 83.460755 -1.108995 12.179504 -14.415618 21.722830 -3.789145 0.892552 -0.711734 9.754741 -13.582318 12.087981 -3.248300 7.125000 0.000000 0.000000 8.784200 -17.066900 5.889400 
1.645224 106.223160 46.412118 7.391572 -49.271794 -3.265805 -0.125752 1.502521 1.367035 -22.175621 -8.318191 -17.226061 0.578897 8.358596 25.261179 1.183247 -3.085252 6.876091 0.009900 0.643400 1.768000 -3.383624 -2.378477 0.960279 19.777313 6.881371 -16.764571 -14.079925 -18.484971 71.951345 0.867884 -6.331070 4.865497 -0.399100 -4.056100 11.234600 -3.217587 2.043535 7.941485 0.084179 2.081181 -1.814907 2.137273 1.497191 -4.818734 -8.615189 -2.990313 -10.423940 4.357681 -3.076240 14.904404 3.445700 -2.063000 9.969400 -8.419381 3.093590 -2.074911 -81.121829 1.619912 0.602084 6.724794 -12.980245 -0.621527 -1.909685 -2.999446 18.053896 15.731995 22.159656 7.370400 -7.125000 0.000000 0.000000 -14.205500 56.004000 -3.890500 6.134707 -2.101800 -2.269075 82.983324 -1.998442 10.137544 -12.783566 19.337224 -2.947895 1.028540 -0.582582 10.448348 -14.272072 9.725770 -2.756700 7.125000 0.000000 0.000000 8.252600 -19.592300 5.059900 
-1.718328 106.263702 50.895624 10.275809 -48.198184 -5.112073 -0.149430 1.659954 1.514399 -25.504941 -8.618604 -13.728034 0.562050 8.058550 24.751157 1.187142 -3.384177 4.010076 0.183500 2.759000 7.608600 -3.391611 -2.295173 0.983648 17.053341 7.141153 -24.454216 -13.976127 -18.877397 71.900290 0.586477 -4.654386 1.349560 -0.199300 -2.875000 7.930800 -5.395395 1.656152 7.385243 -0.014939 1.395576 -1.840994 3.000751 1.135150 -4.611919 -8.843906 -2.893518 -10.296153 4.058649 -2.896980 15.438943 3.338600 -2.051300 10.130700 -8.431202 3.056303 -2.015453 -80.926988 -0.698493 0.414031 6.802851 -13.095947 -0.658356 -2.142570 -2.770759 22.784315 15.890170 22.115543 7.421900 -7.125000 0.000000 0.000000 -13.973900 55.935600 -3.801900 6.149017 -2.203169 -2.325283 82.354603 -4.500897 6.722015 -12.244154 18.853429 -2.777764 0.813411 -0.846136 13.747499 -12.847557 11.675410 -2.997200 7.125000 0.000000 0.000000 9.302600 -17.452000 6.166700 
-5.122428 105.919668 55.272240 10.914844 -46.429141 -5.320540 -0.090811 1.778573 1.629960 -27.382138 -8.554894 -10.687300 0.791310 8.237493 25.610270 1.435108 -4.423838 0.598623 0.042000 1.322300 3.635900 -3.347526 -2.205819 0.959735 16.211449 6.977630 -30.528536 -12.456729 -18.705054 67.533087 0.112261 -2.417679 -1.597859 -0.102300 -2.062400 5.678100 -6.107909 1.117173 7.293664 0.012296 0.663324 -1.771846 3.392004 0.701103 -4.245290 -8.687034 -2.988330 -10.994957 4.005746 -3.015970 15.764887 3.236500 -2.091400 10.448000 -8.334666 2.950721 -1.966072 -80.594105 -3.538848 3.463179 7.251333 -13.858079 -0.828561 -2.183377 -2.688489 21.013653 17.005786 21.254627 7.739900 -7.125000 0.000000 0.000000 -12.174900 55.237900 -3.093800 6.069358 -2.247000 -2.419464 81.991648 -7.106881 7.030950 -12.571215 19.510389 -2.944611 0.956957 -0.507146 10.478839 -13.090525 9.591090 -2.473000 7.125000 0.000000 0.000000 9.154500 -19.857700 5.571400 
